{
  "accessors": [
    {
      "bufferView": 2,
      "componentType": 5126,
      "count": 4606,
      "max": [
        1.3883310556411743,
        15.121575355529785,
        4.524596214294434
      ],
      "min": [
        -1.3883310556411743,
        -20.44444465637207,
        -1.320544958114624
      ],
      "type": "VEC3"
    },
    {
      "bufferView": 2,
      "byteOffset": 55272,
      "componentType": 5126,
      "count": 4606,
      "max": [
        1.0,
        1.0,
        1.0
      ],
      "min": [
        -1.0,
        -1.0,
        -1.0
      ],
      "type": "VEC3"
    },
    {
      "bufferView": 1,
      "componentType": 5126,
      "count": 4606,
      "max": [
        0.9976000189781189,
        0.9955000281333923
      ],
      "min": [
        0.0010000000474974513,
        0.0038999998942017555
      ],
      "type": "VEC2"
    },
    {
      "bufferView": 0,
      "componentType": 5125,
      "count": 10683,
      "type": "SCALAR"
    },
    {
      "bufferView": 2,
      "byteOffset": 110544,
      "componentType": 5126,
      "count": 2553,
      "max": [
        0.8543230295181274,
        5.4888482093811035,
        6.198588848114014
      ],
      "min": [
        -0.8120189905166626,
        -0.311832994222641,
        2.7916550636291504
      ],
      "type": "VEC3"
    },
    {
      "bufferView": 2,
      "byteOffset": 141180,
      "componentType": 5126,
      "count": 2553,
      "max": [
        1.0,
        1.0,
        1.0
      ],
      "min": [
        -1.0,
        -1.0,
        -1.0
      ],
      "type": "VEC3"
    },
    {
      "bufferView": 1,
      "byteOffset": 36848,
      "componentType": 5126,
      "count": 2553,
      "max": [
        1.0,
        1.0
      ],
      "min": [
        0.0,
        0.0
      ],
      "type": "VEC2"
    },
    {
      "bufferView": 0,
      "byteOffset": 42732,
      "componentType": 5125,
      "count": 6459,
      "type": "SCALAR"
    },
    {
      "bufferView": 2,
      "byteOffset": 171816,
      "componentType": 5126,
      "count": 16,
      "max": [
        0.3630549907684326,
        5.4868879318237305,
        5.608030796051025
      ],
      "min": [
        -0.35593101382255554,
        5.422132968902588,
        4.88969087600708
      ],
      "type": "VEC3"
    },
    {
      "bufferView": 2,
      "byteOffset": 172008,
      "componentType": 5126,
      "count": 16,
      "max": [
        0.17729204893112183,
        0.9977657794952393,
        0.1774069368839264
      ],
      "min": [
        -0.1768079549074173,
        0.9814050197601318,
        -0.17690099775791168
      ],
      "type": "VEC3"
    },
    {
      "bufferView": 1,
      "byteOffset": 57272,
      "componentType": 5126,
      "count": 16,
      "max": [
        0.9570000171661377,
        0.9563000202178955
      ],
      "min": [
        0.0560000017285347,
        0.05570000037550926
      ],
      "type": "VEC2"
    },
    {
      "bufferView": 0,
      "byteOffset": 68568,
      "componentType": 5125,
      "count": 24,
      "type": "SCALAR"
    },
    {
      "bufferView": 2,
      "byteOffset": 172200,
      "componentType": 5126,
      "count": 1168,
      "max": [
        0.5553420186042786,
        -6.573525905609131,
        0.571258008480072
      ],
      "min": [
        -0.529079020023346,
        -9.272539138793945,
        -0.5263389945030212
      ],
      "type": "VEC3"
    },
    {
      "bufferView": 2,
      "byteOffset": 186216,
      "componentType": 5126,
      "count": 1168,
      "max": [
        0.9999841451644897,
        1.0,
        0.9999483823776245
      ],
      "min": [
        -0.9999991059303284,
        -1.0,
        -0.9999483823776245
      ],
      "type": "VEC3"
    },
    {
      "bufferView": 1,
      "byteOffset": 57400,
      "componentType": 5126,
      "count": 1168,
      "max": [
        0.9882810115814209,
        0.9852520227432251
      ],
      "min": [
        0.005886000115424395,
        0.004883000161498785
      ],
      "type": "VEC2"
    },
    {
      "bufferView": 0,
      "byteOffset": 68664,
      "componentType": 5125,
      "count": 2400,
      "type": "SCALAR"
    }
  ],
  "asset": {
    "extras": {
      "author": "3D only (https://sketchfab.com/ateamodels3d)",
      "license": "CC-BY-4.0 (http://creativecommons.org/licenses/by/4.0/)",
      "source": "https://sketchfab.com/3d-models/rorsch-mk-1-railgun-f08dedacfd704c4eb24c23632e1f56df",
      "title": "Rorsch Mk-1 Railgun"
    },
    "generator": "Sketchfab-11.90.0",
    "version": "2.0"
  },
  "bufferViews": [
    {
      "buffer": 0,
      "byteLength": 78264,
      "name": "floatBufferViews",
      "target": 34963
    },
    {
      "buffer": 0,
      "byteLength": 66744,
      "byteOffset": 78264,
      "byteStride": 8,
      "name": "floatBufferViews",
      "target": 34962
    },
    {
      "buffer": 0,
      "byteLength": 200232,
      "byteOffset": 145008,
      "byteStride": 12,
      "name": "floatBufferViews",
      "target": 34962
    }
  ],
  "buffers": [
    {
      "byteLength": 345240,
      "uri": "scene.bin"
    }
  ],
  "images": [
    {
      "uri": "textures/Material_57_baseColor.png"
    },
    {
      "uri": "textures/Material_68_baseColor.png"
    },
    {
      "uri": "textures/Material_69_baseColor.png"
    },
    {
      "uri": "textures/Material_80_baseColor.png"
    }
  ],
  "materials": [
    {
      "doubleSided": true,
      "name": "Material_57",
      "pbrMetallicRoughness": {
        "baseColorTexture": {
          "index": 0
        },
        "metallicFactor": 0.0,
        "roughnessFactor": 0.8929713596497552
      }
    },
    {
      "doubleSided": true,
      "name": "Material_68",
      "pbrMetallicRoughness": {
        "baseColorTexture": {
          "index": 1
        },
        "metallicFactor": 0.0,
        "roughnessFactor": 0.8929713596497552
      }
    },
    {
      "doubleSided": true,
      "name": "Material_69",
      "pbrMetallicRoughness": {
        "baseColorTexture": {
          "index": 2
        },
        "metallicFactor": 0.0,
        "roughnessFactor": 0.8929713596497552
      }
    },
    {
      "doubleSided": true,
      "name": "Material_80",
      "pbrMetallicRoughness": {
        "baseColorTexture": {
          "index": 3
        },
        "metallicFactor": 0.0,
        "roughnessFactor": 0.8929713596497552
      }
    }
  ],
  "meshes": [
    {
      "name": "SMDImport01_Material #57_0",
      "primitives": [
        {
          "attributes": {
            "NORMAL": 1,
            "POSITION": 0,
            "TEXCOORD_0": 2
          },
          "indices": 3,
          "material": 0,
          "mode": 4
        }
      ]
    },
    {
      "name": "SMDImport02_Material #68_0",
      "primitives": [
        {
          "attributes": {
            "NORMAL": 5,
            "POSITION": 4,
            "TEXCOORD_0": 6
          },
          "indices": 7,
          "material": 1,
          "mode": 4
        }
      ]
    },
    {
      "name": "SMDImport02_Material #69_0",
      "primitives": [
        {
          "attributes": {
            "NORMAL": 9,
            "POSITION": 8,
            "TEXCOORD_0": 10
          },
          "indices": 11,
          "material": 2,
          "mode": 4
        }
      ]
    },
    {
      "name": "SMDImport03_Material #80_0",
      "primitives": [
        {
          "attributes": {
            "NORMAL": 13,
            "POSITION": 12,
            "TEXCOORD_0": 14
          },
          "indices": 15,
          "material": 3,
          "mode": 4
        }
      ]
    }
  ],
  "nodes": [
    {
      "children": [
        1
      ],
      "matrix": [
        1.0,
        0.0,
        0.0,
        0.0,
        0.0,
        2.220446049250313e-16,
        -1.0,
        0.0,
        0.0,
        1.0,
        2.220446049250313e-16,
        0.0,
        0.0,
        0.0,
        0.0,
        1.0
      ],
      "name": "Sketchfab_model"
    },
    {
      "children": [
        2
      ],
      "matrix": [
        0.02539999969303608,
        0.0,
        0.0,
        0.0,
        0.0,
        0.0,
        0.02539999969303608,
        0.0,
        0.0,
        -0.02539999969303608,
        0.0,
        0.0,
        0.0,
        0.0,
        0.0,
        1.0
      ],
      "name": "Rorsch Mk-1 loaded.FBX"
    },
    {
      "children": [
        3,
        5,
        8
      ],
      "name": "RootNode"
    },
    {
      "children": [
        4
      ],
      "matrix": [
        1.0,
        0.0,
        0.0,
        0.0,
        0.0,
        2.220446049250313e-16,
        -1.0,
        0.0,
        0.0,
        1.0,
        2.220446049250313e-16,
        0.0,
        0.0,
        0.0,
        0.0,
        1.0
      ],
      "name": "SMDImport01"
    },
    {
      "mesh": 0,
      "name": "SMDImport01_Material #57_0"
    },
    {
      "children": [
        6,
        7
      ],
      "matrix": [
        1.0,
        0.0,
        0.0,
        0.0,
        0.0,
        2.220446049250313e-16,
        -1.0,
        0.0,
        0.0,
        1.0,
        2.220446049250313e-16,
        0.0,
        0.0,
        0.0,
        0.0,
        1.0
      ],
      "name": "SMDImport02"
    },
    {
      "mesh": 1,
      "name": "SMDImport02_Material #68_0"
    },
    {
      "mesh": 2,
      "name": "SMDImport02_Material #69_0"
    },
    {
      "children": [
        9
      ],
      "matrix": [
        1.0,
        0.0,
        0.0,
        0.0,
        0.0,
        2.220446049250313e-16,
        -1.0,
        0.0,
        0.0,
        1.0,
        2.220446049250313e-16,
        0.0,
        0.0,
        0.0,
        0.0,
        1.0
      ],
      "name": "SMDImport03"
    },
    {
      "mesh": 3,
      "name": "SMDImport03_Material #80_0"
    }
  ],
  "samplers": [
    {
      "magFilter": 9729,
      "minFilter": 9987,
      "wrapS": 10497,
      "wrapT": 10497
    }
  ],
  "scene": 0,
  "scenes": [
    {
      "name": "Sketchfab_Scene",
      "nodes": [
        0
      ]
    }
  ],
  "textures": [
    {
      "sampler": 0,
      "source": 0
    },
    {
      "sampler": 0,
      "source": 1
    },
    {
      "sampler": 0,
      "source": 2
    },
    {
      "sampler": 0,
      "source": 3
    }
  ]
}
