{
  "accessors": [
    {
      "bufferView": 2,
      "componentType": 5126,
      "count": 47905,
      "max": [
        -3.466264009475708,
        8.44467544555664,
        17.303817749023438
      ],
      "min": [
        -5.668478965759277,
        5.357470989227295,
        11.619058609008789
      ],
      "type": "VEC3"
    },
    {
      "bufferView": 2,
      "byteOffset": 574860,
      "componentType": 5126,
      "count": 47905,
      "max": [
        0.9999970197677612,
        0.9999587535858154,
        0.9999999403953552
      ],
      "min": [
        -0.9999865293502808,
        -0.9999738335609436,
        -0.9999868273735046
      ],
      "type": "VEC3"
    },
    {
      "bufferView": 1,
      "componentType": 5126,
      "count": 47905,
      "max": [
        0.9933159947395325,
        0.9565430283546448
      ],
      "min": [
        0.002440999960526824,
        0.00635500019416213
      ],
      "type": "VEC2"
    },
    {
      "bufferView": 0,
      "componentType": 5125,
      "count": 258468,
      "type": "SCALAR"
    }
  ],
  "asset": {
    "extras": {
      "author": "Thomas Flynn (https://sketchfab.com/nebulousflynn)",
      "license": "CC-BY-4.0 (http://creativecommons.org/licenses/by/4.0/)",
      "source": "https://sketchfab.com/3d-models/bungeoppang-faa8f9b40e87470493ede1c05f53096c",
      "title": "Bungeoppang"
    },
    "generator": "Sketchfab-11.89.0",
    "version": "2.0"
  },
  "bufferViews": [
    {
      "buffer": 0,
      "byteLength": 1033872,
      "name": "floatBufferViews",
      "target": 34963
    },
    {
      "buffer": 0,
      "byteLength": 383240,
      "byteOffset": 1033872,
      "byteStride": 8,
      "name": "floatBufferViews",
      "target": 34962
    },
    {
      "buffer": 0,
      "byteLength": 1149720,
      "byteOffset": 1417112,
      "byteStride": 12,
      "name": "floatBufferViews",
      "target": 34962
    }
  ],
  "buffers": [
    {
      "byteLength": 2566832,
      "uri": "scene.bin"
    }
  ],
  "images": [
    {
      "uri": "textures/fishcake-edited-textured_baseColor.png"
    }
  ],
  "materials": [
    {
      "doubleSided": true,
      "name": "fishcake-edited-textured",
      "pbrMetallicRoughness": {
        "baseColorTexture": {
          "index": 0
        },
        "metallicFactor": 0.0
      }
    }
  ],
  "meshes": [
    {
      "name": "Object_0",
      "primitives": [
        {
          "attributes": {
            "NORMAL": 1,
            "POSITION": 0,
            "TEXCOORD_0": 2
          },
          "indices": 3,
          "material": 0,
          "mode": 4
        }
      ]
    }
  ],
  "nodes": [
    {
      "children": [
        1
      ],
      "matrix": [
        -0.0012755114577578386,
        -0.00677197262443419,
        0.02012975355080493,
        0.0,
        0.0031649856123192044,
        -0.02000145392289654,
        -0.006528262555595969,
        0.0,
        0.02100117723437933,
        0.0026030247959757387,
        0.0022064281840378235,
        0.0,
        -20.14202117919922,
        17.725988388061523,
        -1.9621292352676352,
        1.0
      ],
      "name": "Sketchfab_model"
    },
    {
      "children": [
        2
      ],
      "name": "fishcake-edited-textured.obj.cleaner.materialmerger.gles"
    },
    {
      "mesh": 0,
      "name": "Object_2"
    }
  ],
  "samplers": [
    {
      "magFilter": 9729,
      "minFilter": 9987,
      "wrapS": 10497,
      "wrapT": 10497
    }
  ],
  "scene": 0,
  "scenes": [
    {
      "name": "Sketchfab_Scene",
      "nodes": [
        0
      ]
    }
  ],
  "textures": [
    {
      "sampler": 0,
      "source": 0
    }
  ]
}
